<?xml version="1.0" encoding="utf-8" standalone="no"?>
<!DOCTYPE svg PUBLIC "-//W3C//DTD SVG 1.1//EN"
  "http://www.w3.org/Graphics/SVG/1.1/DTD/svg11.dtd">
<svg height="288pt" version="1.1" viewBox="0 0 432 288" width="432pt" xmlns="http://www.w3.org/2000/svg" xmlns:xlink="http://www.w3.org/1999/xlink">
 <metadata>
  <rdf:RDF xmlns:cc="http://creativecommons.org/ns#" xmlns:dc="http://purl.org/dc/elements/1.1/" xmlns:rdf="http://www.w3.org/1999/02/22-rdf-syntax-ns#">
   <cc:Work>
    <dc:type rdf:resource="http://purl.org/dc/dcmitype/StillImage"/>
    <dc:date>2021-05-22T11:28:48.240101</dc:date>
    <dc:format>image/svg+xml</dc:format>
    <dc:creator>
     <cc:Agent>
      <dc:title>Matplotlib v3.4.1, https://matplotlib.org/</dc:title>
     </cc:Agent>
    </dc:creator>
   </cc:Work>
  </rdf:RDF>
 </metadata>
 <defs>
  <style type="text/css">*{stroke-linecap:butt;stroke-linejoin:round;}</style>
 </defs>
 <g id="figure_1">
  <g id="patch_1">
   <path d="M 0 288 
L 432 288 
L 432 0 
L 0 0 
z
" style="fill:#ffffff;"/>
  </g>
  <g id="axes_1">
   <g id="patch_2">
    <path d="M 54 252 
L 388.8 252 
L 388.8 34.56 
L 54 34.56 
z
" style="fill:#ffffff;"/>
   </g>
   <g id="matplotlib.axis_1">
    <g id="xtick_1">
     <g id="text_1">
      <!-- 2000 -->
      <g style="fill:#262626;" transform="translate(66.072107 269.748312)scale(0.132 -0.132)">
       <defs>
        <path d="M 3222 541 
L 3222 0 
L 194 0 
Q 188 203 259 391 
Q 375 700 629 1000 
Q 884 1300 1366 1694 
Q 2113 2306 2375 2664 
Q 2638 3022 2638 3341 
Q 2638 3675 2398 3904 
Q 2159 4134 1775 4134 
Q 1369 4134 1125 3890 
Q 881 3647 878 3216 
L 300 3275 
Q 359 3922 746 4261 
Q 1134 4600 1788 4600 
Q 2447 4600 2831 4234 
Q 3216 3869 3216 3328 
Q 3216 3053 3103 2787 
Q 2991 2522 2730 2228 
Q 2469 1934 1863 1422 
Q 1356 997 1212 845 
Q 1069 694 975 541 
L 3222 541 
z
" id="ArialMT-32" transform="scale(0.015625)"/>
        <path d="M 266 2259 
Q 266 3072 433 3567 
Q 600 4063 929 4331 
Q 1259 4600 1759 4600 
Q 2128 4600 2406 4451 
Q 2684 4303 2865 4023 
Q 3047 3744 3150 3342 
Q 3253 2941 3253 2259 
Q 3253 1453 3087 958 
Q 2922 463 2592 192 
Q 2263 -78 1759 -78 
Q 1097 -78 719 397 
Q 266 969 266 2259 
z
M 844 2259 
Q 844 1131 1108 757 
Q 1372 384 1759 384 
Q 2147 384 2411 759 
Q 2675 1134 2675 2259 
Q 2675 3391 2411 3762 
Q 2147 4134 1753 4134 
Q 1366 4134 1134 3806 
Q 844 3388 844 2259 
z
" id="ArialMT-30" transform="scale(0.015625)"/>
       </defs>
       <use xlink:href="#ArialMT-32"/>
       <use x="55.615234" xlink:href="#ArialMT-30"/>
       <use x="111.230469" xlink:href="#ArialMT-30"/>
       <use x="166.845703" xlink:href="#ArialMT-30"/>
      </g>
     </g>
    </g>
    <g id="xtick_2">
     <g id="text_2">
      <!-- 4000 -->
      <g style="fill:#262626;" transform="translate(114.537654 269.748312)scale(0.132 -0.132)">
       <defs>
        <path d="M 2069 0 
L 2069 1097 
L 81 1097 
L 81 1613 
L 2172 4581 
L 2631 4581 
L 2631 1613 
L 3250 1613 
L 3250 1097 
L 2631 1097 
L 2631 0 
L 2069 0 
z
M 2069 1613 
L 2069 3678 
L 634 1613 
L 2069 1613 
z
" id="ArialMT-34" transform="scale(0.015625)"/>
       </defs>
       <use xlink:href="#ArialMT-34"/>
       <use x="55.615234" xlink:href="#ArialMT-30"/>
       <use x="111.230469" xlink:href="#ArialMT-30"/>
       <use x="166.845703" xlink:href="#ArialMT-30"/>
      </g>
     </g>
    </g>
    <g id="xtick_3">
     <g id="text_3">
      <!-- 6000 -->
      <g style="fill:#262626;" transform="translate(163.003201 269.748312)scale(0.132 -0.132)">
       <defs>
        <path d="M 3184 3459 
L 2625 3416 
Q 2550 3747 2413 3897 
Q 2184 4138 1850 4138 
Q 1581 4138 1378 3988 
Q 1113 3794 959 3422 
Q 806 3050 800 2363 
Q 1003 2672 1297 2822 
Q 1591 2972 1913 2972 
Q 2475 2972 2870 2558 
Q 3266 2144 3266 1488 
Q 3266 1056 3080 686 
Q 2894 316 2569 119 
Q 2244 -78 1831 -78 
Q 1128 -78 684 439 
Q 241 956 241 2144 
Q 241 3472 731 4075 
Q 1159 4600 1884 4600 
Q 2425 4600 2770 4297 
Q 3116 3994 3184 3459 
z
M 888 1484 
Q 888 1194 1011 928 
Q 1134 663 1356 523 
Q 1578 384 1822 384 
Q 2178 384 2434 671 
Q 2691 959 2691 1453 
Q 2691 1928 2437 2201 
Q 2184 2475 1800 2475 
Q 1419 2475 1153 2201 
Q 888 1928 888 1484 
z
" id="ArialMT-36" transform="scale(0.015625)"/>
       </defs>
       <use xlink:href="#ArialMT-36"/>
       <use x="55.615234" xlink:href="#ArialMT-30"/>
       <use x="111.230469" xlink:href="#ArialMT-30"/>
       <use x="166.845703" xlink:href="#ArialMT-30"/>
      </g>
     </g>
    </g>
    <g id="xtick_4">
     <g id="text_4">
      <!-- 8000 -->
      <g style="fill:#262626;" transform="translate(211.468749 269.748312)scale(0.132 -0.132)">
       <defs>
        <path d="M 1131 2484 
Q 781 2613 612 2850 
Q 444 3088 444 3419 
Q 444 3919 803 4259 
Q 1163 4600 1759 4600 
Q 2359 4600 2725 4251 
Q 3091 3903 3091 3403 
Q 3091 3084 2923 2848 
Q 2756 2613 2416 2484 
Q 2838 2347 3058 2040 
Q 3278 1734 3278 1309 
Q 3278 722 2862 322 
Q 2447 -78 1769 -78 
Q 1091 -78 675 323 
Q 259 725 259 1325 
Q 259 1772 486 2073 
Q 713 2375 1131 2484 
z
M 1019 3438 
Q 1019 3113 1228 2906 
Q 1438 2700 1772 2700 
Q 2097 2700 2305 2904 
Q 2513 3109 2513 3406 
Q 2513 3716 2298 3927 
Q 2084 4138 1766 4138 
Q 1444 4138 1231 3931 
Q 1019 3725 1019 3438 
z
M 838 1322 
Q 838 1081 952 856 
Q 1066 631 1291 507 
Q 1516 384 1775 384 
Q 2178 384 2440 643 
Q 2703 903 2703 1303 
Q 2703 1709 2433 1975 
Q 2163 2241 1756 2241 
Q 1359 2241 1098 1978 
Q 838 1716 838 1322 
z
" id="ArialMT-38" transform="scale(0.015625)"/>
       </defs>
       <use xlink:href="#ArialMT-38"/>
       <use x="55.615234" xlink:href="#ArialMT-30"/>
       <use x="111.230469" xlink:href="#ArialMT-30"/>
       <use x="166.845703" xlink:href="#ArialMT-30"/>
      </g>
     </g>
    </g>
    <g id="xtick_5">
     <g id="text_5">
      <!-- 10000 -->
      <g style="fill:#262626;" transform="translate(256.264077 269.748312)scale(0.132 -0.132)">
       <defs>
        <path d="M 2384 0 
L 1822 0 
L 1822 3584 
Q 1619 3391 1289 3197 
Q 959 3003 697 2906 
L 697 3450 
Q 1169 3672 1522 3987 
Q 1875 4303 2022 4600 
L 2384 4600 
L 2384 0 
z
" id="ArialMT-31" transform="scale(0.015625)"/>
       </defs>
       <use xlink:href="#ArialMT-31"/>
       <use x="55.615234" xlink:href="#ArialMT-30"/>
       <use x="111.230469" xlink:href="#ArialMT-30"/>
       <use x="166.845703" xlink:href="#ArialMT-30"/>
       <use x="222.460938" xlink:href="#ArialMT-30"/>
      </g>
     </g>
    </g>
    <g id="xtick_6">
     <g id="text_6">
      <!-- 12000 -->
      <g style="fill:#262626;" transform="translate(304.729624 269.748312)scale(0.132 -0.132)">
       <use xlink:href="#ArialMT-31"/>
       <use x="55.615234" xlink:href="#ArialMT-32"/>
       <use x="111.230469" xlink:href="#ArialMT-30"/>
       <use x="166.845703" xlink:href="#ArialMT-30"/>
       <use x="222.460938" xlink:href="#ArialMT-30"/>
      </g>
     </g>
    </g>
    <g id="xtick_7">
     <g id="text_7">
      <!-- 14000 -->
      <g style="fill:#262626;" transform="translate(353.195171 269.748312)scale(0.132 -0.132)">
       <use xlink:href="#ArialMT-31"/>
       <use x="55.615234" xlink:href="#ArialMT-34"/>
       <use x="111.230469" xlink:href="#ArialMT-30"/>
       <use x="166.845703" xlink:href="#ArialMT-30"/>
       <use x="222.460938" xlink:href="#ArialMT-30"/>
      </g>
     </g>
    </g>
    <g id="text_8">
     <!-- Dataset size -->
     <g style="fill:#262626;" transform="translate(181.78425 286.679062)scale(0.144 -0.144)">
      <defs>
       <path d="M 494 0 
L 494 4581 
L 2072 4581 
Q 2606 4581 2888 4516 
Q 3281 4425 3559 4188 
Q 3922 3881 4101 3404 
Q 4281 2928 4281 2316 
Q 4281 1794 4159 1391 
Q 4038 988 3847 723 
Q 3656 459 3429 307 
Q 3203 156 2883 78 
Q 2563 0 2147 0 
L 494 0 
z
M 1100 541 
L 2078 541 
Q 2531 541 2789 625 
Q 3047 709 3200 863 
Q 3416 1078 3536 1442 
Q 3656 1806 3656 2325 
Q 3656 3044 3420 3430 
Q 3184 3816 2847 3947 
Q 2603 4041 2063 4041 
L 1100 4041 
L 1100 541 
z
" id="ArialMT-44" transform="scale(0.015625)"/>
       <path d="M 2588 409 
Q 2275 144 1986 34 
Q 1697 -75 1366 -75 
Q 819 -75 525 192 
Q 231 459 231 875 
Q 231 1119 342 1320 
Q 453 1522 633 1644 
Q 813 1766 1038 1828 
Q 1203 1872 1538 1913 
Q 2219 1994 2541 2106 
Q 2544 2222 2544 2253 
Q 2544 2597 2384 2738 
Q 2169 2928 1744 2928 
Q 1347 2928 1158 2789 
Q 969 2650 878 2297 
L 328 2372 
Q 403 2725 575 2942 
Q 747 3159 1072 3276 
Q 1397 3394 1825 3394 
Q 2250 3394 2515 3294 
Q 2781 3194 2906 3042 
Q 3031 2891 3081 2659 
Q 3109 2516 3109 2141 
L 3109 1391 
Q 3109 606 3145 398 
Q 3181 191 3288 0 
L 2700 0 
Q 2613 175 2588 409 
z
M 2541 1666 
Q 2234 1541 1622 1453 
Q 1275 1403 1131 1340 
Q 988 1278 909 1158 
Q 831 1038 831 891 
Q 831 666 1001 516 
Q 1172 366 1500 366 
Q 1825 366 2078 508 
Q 2331 650 2450 897 
Q 2541 1088 2541 1459 
L 2541 1666 
z
" id="ArialMT-61" transform="scale(0.015625)"/>
       <path d="M 1650 503 
L 1731 6 
Q 1494 -44 1306 -44 
Q 1000 -44 831 53 
Q 663 150 594 308 
Q 525 466 525 972 
L 525 2881 
L 113 2881 
L 113 3319 
L 525 3319 
L 525 4141 
L 1084 4478 
L 1084 3319 
L 1650 3319 
L 1650 2881 
L 1084 2881 
L 1084 941 
Q 1084 700 1114 631 
Q 1144 563 1211 522 
Q 1278 481 1403 481 
Q 1497 481 1650 503 
z
" id="ArialMT-74" transform="scale(0.015625)"/>
       <path d="M 197 991 
L 753 1078 
Q 800 744 1014 566 
Q 1228 388 1613 388 
Q 2000 388 2187 545 
Q 2375 703 2375 916 
Q 2375 1106 2209 1216 
Q 2094 1291 1634 1406 
Q 1016 1563 777 1677 
Q 538 1791 414 1992 
Q 291 2194 291 2438 
Q 291 2659 392 2848 
Q 494 3038 669 3163 
Q 800 3259 1026 3326 
Q 1253 3394 1513 3394 
Q 1903 3394 2198 3281 
Q 2494 3169 2634 2976 
Q 2775 2784 2828 2463 
L 2278 2388 
Q 2241 2644 2061 2787 
Q 1881 2931 1553 2931 
Q 1166 2931 1000 2803 
Q 834 2675 834 2503 
Q 834 2394 903 2306 
Q 972 2216 1119 2156 
Q 1203 2125 1616 2013 
Q 2213 1853 2448 1751 
Q 2684 1650 2818 1456 
Q 2953 1263 2953 975 
Q 2953 694 2789 445 
Q 2625 197 2315 61 
Q 2006 -75 1616 -75 
Q 969 -75 630 194 
Q 291 463 197 991 
z
" id="ArialMT-73" transform="scale(0.015625)"/>
       <path d="M 2694 1069 
L 3275 997 
Q 3138 488 2766 206 
Q 2394 -75 1816 -75 
Q 1088 -75 661 373 
Q 234 822 234 1631 
Q 234 2469 665 2931 
Q 1097 3394 1784 3394 
Q 2450 3394 2872 2941 
Q 3294 2488 3294 1666 
Q 3294 1616 3291 1516 
L 816 1516 
Q 847 969 1125 678 
Q 1403 388 1819 388 
Q 2128 388 2347 550 
Q 2566 713 2694 1069 
z
M 847 1978 
L 2700 1978 
Q 2663 2397 2488 2606 
Q 2219 2931 1791 2931 
Q 1403 2931 1139 2672 
Q 875 2413 847 1978 
z
" id="ArialMT-65" transform="scale(0.015625)"/>
       <path id="ArialMT-20" transform="scale(0.015625)"/>
       <path d="M 425 3934 
L 425 4581 
L 988 4581 
L 988 3934 
L 425 3934 
z
M 425 0 
L 425 3319 
L 988 3319 
L 988 0 
L 425 0 
z
" id="ArialMT-69" transform="scale(0.015625)"/>
       <path d="M 125 0 
L 125 456 
L 2238 2881 
Q 1878 2863 1603 2863 
L 250 2863 
L 250 3319 
L 2963 3319 
L 2963 2947 
L 1166 841 
L 819 456 
Q 1197 484 1528 484 
L 3063 484 
L 3063 0 
L 125 0 
z
" id="ArialMT-7a" transform="scale(0.015625)"/>
      </defs>
      <use xlink:href="#ArialMT-44"/>
      <use x="72.216797" xlink:href="#ArialMT-61"/>
      <use x="127.832031" xlink:href="#ArialMT-74"/>
      <use x="155.615234" xlink:href="#ArialMT-61"/>
      <use x="211.230469" xlink:href="#ArialMT-73"/>
      <use x="261.230469" xlink:href="#ArialMT-65"/>
      <use x="316.845703" xlink:href="#ArialMT-74"/>
      <use x="344.628906" xlink:href="#ArialMT-20"/>
      <use x="372.412109" xlink:href="#ArialMT-73"/>
      <use x="422.412109" xlink:href="#ArialMT-69"/>
      <use x="444.628906" xlink:href="#ArialMT-7a"/>
      <use x="494.628906" xlink:href="#ArialMT-65"/>
     </g>
    </g>
   </g>
   <g id="matplotlib.axis_2">
    <g id="ytick_1">
     <g id="text_9">
      <!-- 0.84 -->
      <g style="fill:#262626;" transform="translate(20.011563 238.604156)scale(0.132 -0.132)">
       <defs>
        <path d="M 581 0 
L 581 641 
L 1222 641 
L 1222 0 
L 581 0 
z
" id="ArialMT-2e" transform="scale(0.015625)"/>
       </defs>
       <use xlink:href="#ArialMT-30"/>
       <use x="55.615234" xlink:href="#ArialMT-2e"/>
       <use x="83.398438" xlink:href="#ArialMT-38"/>
       <use x="139.013672" xlink:href="#ArialMT-34"/>
      </g>
     </g>
    </g>
    <g id="ytick_2">
     <g id="text_10">
      <!-- 0.86 -->
      <g style="fill:#262626;" transform="translate(20.011563 202.364156)scale(0.132 -0.132)">
       <use xlink:href="#ArialMT-30"/>
       <use x="55.615234" xlink:href="#ArialMT-2e"/>
       <use x="83.398438" xlink:href="#ArialMT-38"/>
       <use x="139.013672" xlink:href="#ArialMT-36"/>
      </g>
     </g>
    </g>
    <g id="ytick_3">
     <g id="text_11">
      <!-- 0.88 -->
      <g style="fill:#262626;" transform="translate(20.011563 166.124156)scale(0.132 -0.132)">
       <use xlink:href="#ArialMT-30"/>
       <use x="55.615234" xlink:href="#ArialMT-2e"/>
       <use x="83.398438" xlink:href="#ArialMT-38"/>
       <use x="139.013672" xlink:href="#ArialMT-38"/>
      </g>
     </g>
    </g>
    <g id="ytick_4">
     <g id="text_12">
      <!-- 0.90 -->
      <g style="fill:#262626;" transform="translate(20.011563 129.884156)scale(0.132 -0.132)">
       <defs>
        <path d="M 350 1059 
L 891 1109 
Q 959 728 1153 556 
Q 1347 384 1650 384 
Q 1909 384 2104 503 
Q 2300 622 2425 820 
Q 2550 1019 2634 1356 
Q 2719 1694 2719 2044 
Q 2719 2081 2716 2156 
Q 2547 1888 2255 1720 
Q 1963 1553 1622 1553 
Q 1053 1553 659 1965 
Q 266 2378 266 3053 
Q 266 3750 677 4175 
Q 1088 4600 1706 4600 
Q 2153 4600 2523 4359 
Q 2894 4119 3086 3673 
Q 3278 3228 3278 2384 
Q 3278 1506 3087 986 
Q 2897 466 2520 194 
Q 2144 -78 1638 -78 
Q 1100 -78 759 220 
Q 419 519 350 1059 
z
M 2653 3081 
Q 2653 3566 2395 3850 
Q 2138 4134 1775 4134 
Q 1400 4134 1122 3828 
Q 844 3522 844 3034 
Q 844 2597 1108 2323 
Q 1372 2050 1759 2050 
Q 2150 2050 2401 2323 
Q 2653 2597 2653 3081 
z
" id="ArialMT-39" transform="scale(0.015625)"/>
       </defs>
       <use xlink:href="#ArialMT-30"/>
       <use x="55.615234" xlink:href="#ArialMT-2e"/>
       <use x="83.398438" xlink:href="#ArialMT-39"/>
       <use x="139.013672" xlink:href="#ArialMT-30"/>
      </g>
     </g>
    </g>
    <g id="ytick_5">
     <g id="text_13">
      <!-- 0.92 -->
      <g style="fill:#262626;" transform="translate(20.011563 93.644156)scale(0.132 -0.132)">
       <use xlink:href="#ArialMT-30"/>
       <use x="55.615234" xlink:href="#ArialMT-2e"/>
       <use x="83.398438" xlink:href="#ArialMT-39"/>
       <use x="139.013672" xlink:href="#ArialMT-32"/>
      </g>
     </g>
    </g>
    <g id="ytick_6">
     <g id="text_14">
      <!-- 0.94 -->
      <g style="fill:#262626;" transform="translate(20.011563 57.404156)scale(0.132 -0.132)">
       <use xlink:href="#ArialMT-30"/>
       <use x="55.615234" xlink:href="#ArialMT-2e"/>
       <use x="83.398438" xlink:href="#ArialMT-39"/>
       <use x="139.013672" xlink:href="#ArialMT-34"/>
      </g>
     </g>
    </g>
    <g id="text_15">
     <!-- F1 score -->
     <g style="fill:#262626;" transform="translate(13.149562 171.286875)rotate(-90)scale(0.144 -0.144)">
      <defs>
       <path d="M 525 0 
L 525 4581 
L 3616 4581 
L 3616 4041 
L 1131 4041 
L 1131 2622 
L 3281 2622 
L 3281 2081 
L 1131 2081 
L 1131 0 
L 525 0 
z
" id="ArialMT-46" transform="scale(0.015625)"/>
       <path d="M 2588 1216 
L 3141 1144 
Q 3050 572 2676 248 
Q 2303 -75 1759 -75 
Q 1078 -75 664 370 
Q 250 816 250 1647 
Q 250 2184 428 2587 
Q 606 2991 970 3192 
Q 1334 3394 1763 3394 
Q 2303 3394 2647 3120 
Q 2991 2847 3088 2344 
L 2541 2259 
Q 2463 2594 2264 2762 
Q 2066 2931 1784 2931 
Q 1359 2931 1093 2626 
Q 828 2322 828 1663 
Q 828 994 1084 691 
Q 1341 388 1753 388 
Q 2084 388 2306 591 
Q 2528 794 2588 1216 
z
" id="ArialMT-63" transform="scale(0.015625)"/>
       <path d="M 213 1659 
Q 213 2581 725 3025 
Q 1153 3394 1769 3394 
Q 2453 3394 2887 2945 
Q 3322 2497 3322 1706 
Q 3322 1066 3130 698 
Q 2938 331 2570 128 
Q 2203 -75 1769 -75 
Q 1072 -75 642 372 
Q 213 819 213 1659 
z
M 791 1659 
Q 791 1022 1069 705 
Q 1347 388 1769 388 
Q 2188 388 2466 706 
Q 2744 1025 2744 1678 
Q 2744 2294 2464 2611 
Q 2184 2928 1769 2928 
Q 1347 2928 1069 2612 
Q 791 2297 791 1659 
z
" id="ArialMT-6f" transform="scale(0.015625)"/>
       <path d="M 416 0 
L 416 3319 
L 922 3319 
L 922 2816 
Q 1116 3169 1280 3281 
Q 1444 3394 1641 3394 
Q 1925 3394 2219 3213 
L 2025 2691 
Q 1819 2813 1613 2813 
Q 1428 2813 1281 2702 
Q 1134 2591 1072 2394 
Q 978 2094 978 1738 
L 978 0 
L 416 0 
z
" id="ArialMT-72" transform="scale(0.015625)"/>
      </defs>
      <use xlink:href="#ArialMT-46"/>
      <use x="61.083984" xlink:href="#ArialMT-31"/>
      <use x="116.699219" xlink:href="#ArialMT-20"/>
      <use x="144.482422" xlink:href="#ArialMT-73"/>
      <use x="194.482422" xlink:href="#ArialMT-63"/>
      <use x="244.482422" xlink:href="#ArialMT-6f"/>
      <use x="300.097656" xlink:href="#ArialMT-72"/>
      <use x="333.398438" xlink:href="#ArialMT-65"/>
     </g>
    </g>
   </g>
   <g id="PathCollection_1">
    <defs>
     <path d="M 0 2.5 
C 0.663008 2.5 1.29895 2.236584 1.767767 1.767767 
C 2.236584 1.29895 2.5 0.663008 2.5 -0 
C 2.5 -0.663008 2.236584 -1.29895 1.767767 -1.767767 
C 1.29895 -2.236584 0.663008 -2.5 0 -2.5 
C -0.663008 -2.5 -1.29895 -2.236584 -1.767767 -1.767767 
C -2.236584 -1.29895 -2.5 -0.663008 -2.5 0 
C -2.5 0.663008 -2.236584 1.29895 -1.767767 1.767767 
C -1.29895 2.236584 -0.663008 2.5 0 2.5 
z
" id="C0_0_ecc03d015c"/>
    </defs>
    <g clip-path="url(#p8a625bd800)">
     <use style="fill:#1f77b4;stroke:#ffffff;stroke-width:0.4;" x="81.043775" xlink:href="#C0_0_ecc03d015c" y="187.45656"/>
    </g>
    <g clip-path="url(#p8a625bd800)">
     <use style="fill:#1f77b4;stroke:#ffffff;stroke-width:0.4;" x="81.043775" xlink:href="#C0_0_ecc03d015c" y="201.896388"/>
    </g>
    <g clip-path="url(#p8a625bd800)">
     <use style="fill:#1f77b4;stroke:#ffffff;stroke-width:0.4;" x="81.043775" xlink:href="#C0_0_ecc03d015c" y="210.33306"/>
    </g>
    <g clip-path="url(#p8a625bd800)">
     <use style="fill:#ff7f0e;stroke:#ffffff;stroke-width:0.4;" x="81.043775" xlink:href="#C0_0_ecc03d015c" y="258.6591"/>
    </g>
    <g clip-path="url(#p8a625bd800)">
     <use style="fill:#ff7f0e;stroke:#ffffff;stroke-width:0.4;" x="81.043775" xlink:href="#C0_0_ecc03d015c" y="215.76"/>
    </g>
    <g clip-path="url(#p8a625bd800)">
     <use style="fill:#ff7f0e;stroke:#ffffff;stroke-width:0.4;" x="81.043775" xlink:href="#C0_0_ecc03d015c" y="270.714336"/>
    </g>
    <g clip-path="url(#p8a625bd800)">
     <use style="fill:#1f77b4;stroke:#ffffff;stroke-width:0.4;" x="81.043775" xlink:href="#C0_0_ecc03d015c" y="210.23957"/>
    </g>
    <g clip-path="url(#p8a625bd800)">
     <use style="fill:#ff7f0e;stroke:#ffffff;stroke-width:0.4;" x="81.043775" xlink:href="#C0_0_ecc03d015c" y="251.902755"/>
    </g>
    <g clip-path="url(#p8a625bd800)">
     <use style="fill:#1f77b4;stroke:#ffffff;stroke-width:0.4;" x="178.556456" xlink:href="#C0_0_ecc03d015c" y="113.247912"/>
    </g>
    <g clip-path="url(#p8a625bd800)">
     <use style="fill:#1f77b4;stroke:#ffffff;stroke-width:0.4;" x="178.556456" xlink:href="#C0_0_ecc03d015c" y="88.92"/>
    </g>
    <g clip-path="url(#p8a625bd800)">
     <use style="fill:#1f77b4;stroke:#ffffff;stroke-width:0.4;" x="178.556456" xlink:href="#C0_0_ecc03d015c" y="130.98558"/>
    </g>
    <g clip-path="url(#p8a625bd800)">
     <use style="fill:#ff7f0e;stroke:#ffffff;stroke-width:0.4;" x="178.556456" xlink:href="#C0_0_ecc03d015c" y="126.085932"/>
    </g>
    <g clip-path="url(#p8a625bd800)">
     <use style="fill:#ff7f0e;stroke:#ffffff;stroke-width:0.4;" x="178.556456" xlink:href="#C0_0_ecc03d015c" y="123.304512"/>
    </g>
    <g clip-path="url(#p8a625bd800)">
     <use style="fill:#ff7f0e;stroke:#ffffff;stroke-width:0.4;" x="178.556456" xlink:href="#C0_0_ecc03d015c" y="128.23134"/>
    </g>
    <g clip-path="url(#p8a625bd800)">
     <use style="fill:#1f77b4;stroke:#ffffff;stroke-width:0.4;" x="178.556456" xlink:href="#C0_0_ecc03d015c" y="110.854737"/>
    </g>
    <g clip-path="url(#p8a625bd800)">
     <use style="fill:#ff7f0e;stroke:#ffffff;stroke-width:0.4;" x="178.556456" xlink:href="#C0_0_ecc03d015c" y="193.613333"/>
    </g>
    <g clip-path="url(#p8a625bd800)">
     <use style="fill:#1f77b4;stroke:#ffffff;stroke-width:0.4;" x="373.581818" xlink:href="#C0_0_ecc03d015c" y="52.319412"/>
    </g>
    <g clip-path="url(#p8a625bd800)">
     <use style="fill:#1f77b4;stroke:#ffffff;stroke-width:0.4;" x="373.581818" xlink:href="#C0_0_ecc03d015c" y="65.98008"/>
    </g>
    <g clip-path="url(#p8a625bd800)">
     <use style="fill:#1f77b4;stroke:#ffffff;stroke-width:0.4;" x="373.581818" xlink:href="#C0_0_ecc03d015c" y="70.95402"/>
    </g>
    <g clip-path="url(#p8a625bd800)">
     <use style="fill:#ff7f0e;stroke:#ffffff;stroke-width:0.4;" x="373.581818" xlink:href="#C0_0_ecc03d015c" y="91.558272"/>
    </g>
    <g clip-path="url(#p8a625bd800)">
     <use style="fill:#ff7f0e;stroke:#ffffff;stroke-width:0.4;" x="373.581818" xlink:href="#C0_0_ecc03d015c" y="68.926392"/>
    </g>
    <g clip-path="url(#p8a625bd800)">
     <use style="fill:#ff7f0e;stroke:#ffffff;stroke-width:0.4;" x="373.581818" xlink:href="#C0_0_ecc03d015c" y="83.344476"/>
    </g>
    <g clip-path="url(#p8a625bd800)">
     <use style="fill:#1f77b4;stroke:#ffffff;stroke-width:0.4;" x="373.581818" xlink:href="#C0_0_ecc03d015c" y="75.62782"/>
    </g>
    <g clip-path="url(#p8a625bd800)">
     <use style="fill:#ff7f0e;stroke:#ffffff;stroke-width:0.4;" x="373.581818" xlink:href="#C0_0_ecc03d015c" y="73.830307"/>
    </g>
    <g clip-path="url(#p8a625bd800)">
     <use style="fill:#1f77b4;stroke:#ffffff;stroke-width:0.4;" x="69.218182" xlink:href="#C0_0_ecc03d015c" y="222.955452"/>
    </g>
    <g clip-path="url(#p8a625bd800)">
     <use style="fill:#1f77b4;stroke:#ffffff;stroke-width:0.4;" x="69.218182" xlink:href="#C0_0_ecc03d015c" y="203.70114"/>
    </g>
    <g clip-path="url(#p8a625bd800)">
     <use style="fill:#1f77b4;stroke:#ffffff;stroke-width:0.4;" x="69.218182" xlink:href="#C0_0_ecc03d015c" y="217.584684"/>
    </g>
    <g clip-path="url(#p8a625bd800)">
     <use style="fill:#ff7f0e;stroke:#ffffff;stroke-width:0.4;" x="69.218182" xlink:href="#C0_0_ecc03d015c" y="274.526784"/>
    </g>
    <g clip-path="url(#p8a625bd800)">
     <use style="fill:#ff7f0e;stroke:#ffffff;stroke-width:0.4;" x="69.218182" xlink:href="#C0_0_ecc03d015c" y="207.901356"/>
    </g>
    <g clip-path="url(#p8a625bd800)">
     <use style="fill:#ff7f0e;stroke:#ffffff;stroke-width:0.4;" x="69.218182" xlink:href="#C0_0_ecc03d015c" y="180.558276"/>
    </g>
    <g clip-path="url(#p8a625bd800)">
     <use style="fill:#1f77b4;stroke:#ffffff;stroke-width:0.4;" x="69.218182" xlink:href="#C0_0_ecc03d015c" y="206.262829"/>
    </g>
    <g clip-path="url(#p8a625bd800)">
     <use style="fill:#ff7f0e;stroke:#ffffff;stroke-width:0.4;" x="69.218182" xlink:href="#C0_0_ecc03d015c" y="241.625072"/>
    </g>
    <g clip-path="url(#p8a625bd800)">
     <use style="fill:#1f77b4;stroke:#ffffff;stroke-width:0.4;" x="143.079676" xlink:href="#C0_0_ecc03d015c" y="154.925724"/>
    </g>
    <g clip-path="url(#p8a625bd800)">
     <use style="fill:#1f77b4;stroke:#ffffff;stroke-width:0.4;" x="143.079676" xlink:href="#C0_0_ecc03d015c" y="121.950948"/>
    </g>
    <g clip-path="url(#p8a625bd800)">
     <use style="fill:#1f77b4;stroke:#ffffff;stroke-width:0.4;" x="143.079676" xlink:href="#C0_0_ecc03d015c" y="145.9074"/>
    </g>
    <g clip-path="url(#p8a625bd800)">
     <use style="fill:#ff7f0e;stroke:#ffffff;stroke-width:0.4;" x="143.079676" xlink:href="#C0_0_ecc03d015c" y="155.454828"/>
    </g>
    <g clip-path="url(#p8a625bd800)">
     <use style="fill:#ff7f0e;stroke:#ffffff;stroke-width:0.4;" x="143.079676" xlink:href="#C0_0_ecc03d015c" y="175.827144"/>
    </g>
    <g clip-path="url(#p8a625bd800)">
     <use style="fill:#ff7f0e;stroke:#ffffff;stroke-width:0.4;" x="143.079676" xlink:href="#C0_0_ecc03d015c" y="140.306508"/>
    </g>
    <g clip-path="url(#p8a625bd800)">
     <use style="fill:#1f77b4;stroke:#ffffff;stroke-width:0.4;" x="143.079676" xlink:href="#C0_0_ecc03d015c" y="152.095135"/>
    </g>
    <g clip-path="url(#p8a625bd800)">
     <use style="fill:#ff7f0e;stroke:#ffffff;stroke-width:0.4;" x="143.079676" xlink:href="#C0_0_ecc03d015c" y="142.1475"/>
    </g>
    <g clip-path="url(#p8a625bd800)">
     <use style="fill:#1f77b4;stroke:#ffffff;stroke-width:0.4;" x="290.802664" xlink:href="#C0_0_ecc03d015c" y="129.106536"/>
    </g>
    <g clip-path="url(#p8a625bd800)">
     <use style="fill:#1f77b4;stroke:#ffffff;stroke-width:0.4;" x="290.802664" xlink:href="#C0_0_ecc03d015c" y="143.966748"/>
    </g>
    <g clip-path="url(#p8a625bd800)">
     <use style="fill:#1f77b4;stroke:#ffffff;stroke-width:0.4;" x="290.802664" xlink:href="#C0_0_ecc03d015c" y="148.741368"/>
    </g>
    <g clip-path="url(#p8a625bd800)">
     <use style="fill:#ff7f0e;stroke:#ffffff;stroke-width:0.4;" x="290.802664" xlink:href="#C0_0_ecc03d015c" y="111.222096"/>
    </g>
    <g clip-path="url(#p8a625bd800)">
     <use style="fill:#ff7f0e;stroke:#ffffff;stroke-width:0.4;" x="290.802664" xlink:href="#C0_0_ecc03d015c" y="127.453992"/>
    </g>
    <g clip-path="url(#p8a625bd800)">
     <use style="fill:#ff7f0e;stroke:#ffffff;stroke-width:0.4;" x="290.802664" xlink:href="#C0_0_ecc03d015c" y="108.687108"/>
    </g>
    <g clip-path="url(#p8a625bd800)">
     <use style="fill:#1f77b4;stroke:#ffffff;stroke-width:0.4;" x="290.802664" xlink:href="#C0_0_ecc03d015c" y="123.229406"/>
    </g>
    <g clip-path="url(#p8a625bd800)">
     <use style="fill:#ff7f0e;stroke:#ffffff;stroke-width:0.4;" x="290.802664" xlink:href="#C0_0_ecc03d015c" y="158.105455"/>
    </g>
   </g>
   <g id="PathCollection_2"/>
   <g id="PathCollection_3"/>
   <g id="patch_3">
    <path d="M 54 252 
L 54 34.56 
" style="fill:none;stroke:#262626;stroke-linecap:square;stroke-linejoin:miter;"/>
   </g>
   <g id="patch_4">
    <path d="M 54 252 
L 388.8 252 
" style="fill:none;stroke:#262626;stroke-linecap:square;stroke-linejoin:miter;"/>
   </g>
   <g id="legend_1">
    <g id="text_16">
     <!-- Model -->
     <g style="fill:#262626;" transform="translate(496.487813 19.533469)scale(0.144 -0.144)">
      <defs>
       <path d="M 475 0 
L 475 4581 
L 1388 4581 
L 2472 1338 
Q 2622 884 2691 659 
Q 2769 909 2934 1394 
L 4031 4581 
L 4847 4581 
L 4847 0 
L 4263 0 
L 4263 3834 
L 2931 0 
L 2384 0 
L 1059 3900 
L 1059 0 
L 475 0 
z
" id="ArialMT-4d" transform="scale(0.015625)"/>
       <path d="M 2575 0 
L 2575 419 
Q 2259 -75 1647 -75 
Q 1250 -75 917 144 
Q 584 363 401 755 
Q 219 1147 219 1656 
Q 219 2153 384 2558 
Q 550 2963 881 3178 
Q 1213 3394 1622 3394 
Q 1922 3394 2156 3267 
Q 2391 3141 2538 2938 
L 2538 4581 
L 3097 4581 
L 3097 0 
L 2575 0 
z
M 797 1656 
Q 797 1019 1065 703 
Q 1334 388 1700 388 
Q 2069 388 2326 689 
Q 2584 991 2584 1609 
Q 2584 2291 2321 2609 
Q 2059 2928 1675 2928 
Q 1300 2928 1048 2622 
Q 797 2316 797 1656 
z
" id="ArialMT-64" transform="scale(0.015625)"/>
       <path d="M 409 0 
L 409 4581 
L 972 4581 
L 972 0 
L 409 0 
z
" id="ArialMT-6c" transform="scale(0.015625)"/>
      </defs>
      <use xlink:href="#ArialMT-4d"/>
      <use x="83.300781" xlink:href="#ArialMT-6f"/>
      <use x="138.916016" xlink:href="#ArialMT-64"/>
      <use x="194.53125" xlink:href="#ArialMT-65"/>
      <use x="250.146484" xlink:href="#ArialMT-6c"/>
     </g>
    </g>
    <g id="PathCollection_4">
     <defs>
      <path d="M 0 2.4 
C 0.636487 2.4 1.246992 2.147121 1.697056 1.697056 
C 2.147121 1.246992 2.4 0.636487 2.4 0 
C 2.4 -0.636487 2.147121 -1.246992 1.697056 -1.697056 
C 1.246992 -2.147121 0.636487 -2.4 0 -2.4 
C -0.636487 -2.4 -1.246992 -2.147121 -1.697056 -1.697056 
C -2.147121 -1.246992 -2.4 -0.636487 -2.4 0 
C -2.4 0.636487 -2.147121 1.246992 -1.697056 1.697056 
C -1.246992 2.147121 -0.636487 2.4 0 2.4 
z
" id="m9c362cf681" style="stroke:#1f77b4;stroke-width:0.8;"/>
     </defs>
     <g>
      <use style="fill:#1f77b4;stroke:#1f77b4;stroke-width:0.8;" x="420.576" xlink:href="#m9c362cf681" y="34.978781"/>
     </g>
    </g>
    <g id="text_17">
     <!-- bert-base-multilingual-uncased -->
     <g style="fill:#262626;" transform="translate(444.336 38.443781)scale(0.132 -0.132)">
      <defs>
       <path d="M 941 0 
L 419 0 
L 419 4581 
L 981 4581 
L 981 2947 
Q 1338 3394 1891 3394 
Q 2197 3394 2470 3270 
Q 2744 3147 2920 2923 
Q 3097 2700 3197 2384 
Q 3297 2069 3297 1709 
Q 3297 856 2875 390 
Q 2453 -75 1863 -75 
Q 1275 -75 941 416 
L 941 0 
z
M 934 1684 
Q 934 1088 1097 822 
Q 1363 388 1816 388 
Q 2184 388 2453 708 
Q 2722 1028 2722 1663 
Q 2722 2313 2464 2622 
Q 2206 2931 1841 2931 
Q 1472 2931 1203 2611 
Q 934 2291 934 1684 
z
" id="ArialMT-62" transform="scale(0.015625)"/>
       <path d="M 203 1375 
L 203 1941 
L 1931 1941 
L 1931 1375 
L 203 1375 
z
" id="ArialMT-2d" transform="scale(0.015625)"/>
       <path d="M 422 0 
L 422 3319 
L 925 3319 
L 925 2853 
Q 1081 3097 1340 3245 
Q 1600 3394 1931 3394 
Q 2300 3394 2536 3241 
Q 2772 3088 2869 2813 
Q 3263 3394 3894 3394 
Q 4388 3394 4653 3120 
Q 4919 2847 4919 2278 
L 4919 0 
L 4359 0 
L 4359 2091 
Q 4359 2428 4304 2576 
Q 4250 2725 4106 2815 
Q 3963 2906 3769 2906 
Q 3419 2906 3187 2673 
Q 2956 2441 2956 1928 
L 2956 0 
L 2394 0 
L 2394 2156 
Q 2394 2531 2256 2718 
Q 2119 2906 1806 2906 
Q 1569 2906 1367 2781 
Q 1166 2656 1075 2415 
Q 984 2175 984 1722 
L 984 0 
L 422 0 
z
" id="ArialMT-6d" transform="scale(0.015625)"/>
       <path d="M 2597 0 
L 2597 488 
Q 2209 -75 1544 -75 
Q 1250 -75 995 37 
Q 741 150 617 320 
Q 494 491 444 738 
Q 409 903 409 1263 
L 409 3319 
L 972 3319 
L 972 1478 
Q 972 1038 1006 884 
Q 1059 663 1231 536 
Q 1403 409 1656 409 
Q 1909 409 2131 539 
Q 2353 669 2445 892 
Q 2538 1116 2538 1541 
L 2538 3319 
L 3100 3319 
L 3100 0 
L 2597 0 
z
" id="ArialMT-75" transform="scale(0.015625)"/>
       <path d="M 422 0 
L 422 3319 
L 928 3319 
L 928 2847 
Q 1294 3394 1984 3394 
Q 2284 3394 2536 3286 
Q 2788 3178 2913 3003 
Q 3038 2828 3088 2588 
Q 3119 2431 3119 2041 
L 3119 0 
L 2556 0 
L 2556 2019 
Q 2556 2363 2490 2533 
Q 2425 2703 2258 2804 
Q 2091 2906 1866 2906 
Q 1506 2906 1245 2678 
Q 984 2450 984 1813 
L 984 0 
L 422 0 
z
" id="ArialMT-6e" transform="scale(0.015625)"/>
       <path d="M 319 -275 
L 866 -356 
Q 900 -609 1056 -725 
Q 1266 -881 1628 -881 
Q 2019 -881 2231 -725 
Q 2444 -569 2519 -288 
Q 2563 -116 2559 434 
Q 2191 0 1641 0 
Q 956 0 581 494 
Q 206 988 206 1678 
Q 206 2153 378 2554 
Q 550 2956 876 3175 
Q 1203 3394 1644 3394 
Q 2231 3394 2613 2919 
L 2613 3319 
L 3131 3319 
L 3131 450 
Q 3131 -325 2973 -648 
Q 2816 -972 2473 -1159 
Q 2131 -1347 1631 -1347 
Q 1038 -1347 672 -1080 
Q 306 -813 319 -275 
z
M 784 1719 
Q 784 1066 1043 766 
Q 1303 466 1694 466 
Q 2081 466 2343 764 
Q 2606 1063 2606 1700 
Q 2606 2309 2336 2618 
Q 2066 2928 1684 2928 
Q 1309 2928 1046 2623 
Q 784 2319 784 1719 
z
" id="ArialMT-67" transform="scale(0.015625)"/>
      </defs>
      <use xlink:href="#ArialMT-62"/>
      <use x="55.615234" xlink:href="#ArialMT-65"/>
      <use x="111.230469" xlink:href="#ArialMT-72"/>
      <use x="144.53125" xlink:href="#ArialMT-74"/>
      <use x="172.314453" xlink:href="#ArialMT-2d"/>
      <use x="205.615234" xlink:href="#ArialMT-62"/>
      <use x="261.230469" xlink:href="#ArialMT-61"/>
      <use x="316.845703" xlink:href="#ArialMT-73"/>
      <use x="366.845703" xlink:href="#ArialMT-65"/>
      <use x="422.460938" xlink:href="#ArialMT-2d"/>
      <use x="455.761719" xlink:href="#ArialMT-6d"/>
      <use x="539.0625" xlink:href="#ArialMT-75"/>
      <use x="594.677734" xlink:href="#ArialMT-6c"/>
      <use x="616.894531" xlink:href="#ArialMT-74"/>
      <use x="644.677734" xlink:href="#ArialMT-69"/>
      <use x="666.894531" xlink:href="#ArialMT-6c"/>
      <use x="689.111328" xlink:href="#ArialMT-69"/>
      <use x="711.328125" xlink:href="#ArialMT-6e"/>
      <use x="766.943359" xlink:href="#ArialMT-67"/>
      <use x="822.558594" xlink:href="#ArialMT-75"/>
      <use x="878.173828" xlink:href="#ArialMT-61"/>
      <use x="933.789062" xlink:href="#ArialMT-6c"/>
      <use x="956.005859" xlink:href="#ArialMT-2d"/>
      <use x="989.306641" xlink:href="#ArialMT-75"/>
      <use x="1044.921875" xlink:href="#ArialMT-6e"/>
      <use x="1100.537109" xlink:href="#ArialMT-63"/>
      <use x="1150.537109" xlink:href="#ArialMT-61"/>
      <use x="1206.152344" xlink:href="#ArialMT-73"/>
      <use x="1256.152344" xlink:href="#ArialMT-65"/>
      <use x="1311.767578" xlink:href="#ArialMT-64"/>
     </g>
    </g>
    <g id="PathCollection_5">
     <defs>
      <path d="M 0 2.4 
C 0.636487 2.4 1.246992 2.147121 1.697056 1.697056 
C 2.147121 1.246992 2.4 0.636487 2.4 0 
C 2.4 -0.636487 2.147121 -1.246992 1.697056 -1.697056 
C 1.246992 -2.147121 0.636487 -2.4 0 -2.4 
C -0.636487 -2.4 -1.246992 -2.147121 -1.697056 -1.697056 
C -2.147121 -1.246992 -2.4 -0.636487 -2.4 0 
C -2.4 0.636487 -2.147121 1.246992 -1.697056 1.697056 
C -1.246992 2.147121 -0.636487 2.4 0 2.4 
z
" id="mea5debe7ec" style="stroke:#ff7f0e;stroke-width:0.8;"/>
     </defs>
     <g>
      <use style="fill:#ff7f0e;stroke:#ff7f0e;stroke-width:0.8;" x="420.576" xlink:href="#mea5debe7ec" y="53.805281"/>
     </g>
    </g>
    <g id="text_18">
     <!-- xlm-roberta-base -->
     <g style="fill:#262626;" transform="translate(444.336 57.270281)scale(0.132 -0.132)">
      <defs>
       <path d="M 47 0 
L 1259 1725 
L 138 3319 
L 841 3319 
L 1350 2541 
Q 1494 2319 1581 2169 
Q 1719 2375 1834 2534 
L 2394 3319 
L 3066 3319 
L 1919 1756 
L 3153 0 
L 2463 0 
L 1781 1031 
L 1600 1309 
L 728 0 
L 47 0 
z
" id="ArialMT-78" transform="scale(0.015625)"/>
      </defs>
      <use xlink:href="#ArialMT-78"/>
      <use x="50" xlink:href="#ArialMT-6c"/>
      <use x="72.216797" xlink:href="#ArialMT-6d"/>
      <use x="155.517578" xlink:href="#ArialMT-2d"/>
      <use x="188.818359" xlink:href="#ArialMT-72"/>
      <use x="222.119141" xlink:href="#ArialMT-6f"/>
      <use x="277.734375" xlink:href="#ArialMT-62"/>
      <use x="333.349609" xlink:href="#ArialMT-65"/>
      <use x="388.964844" xlink:href="#ArialMT-72"/>
      <use x="422.265625" xlink:href="#ArialMT-74"/>
      <use x="450.048828" xlink:href="#ArialMT-61"/>
      <use x="505.664062" xlink:href="#ArialMT-2d"/>
      <use x="538.964844" xlink:href="#ArialMT-62"/>
      <use x="594.580078" xlink:href="#ArialMT-61"/>
      <use x="650.195312" xlink:href="#ArialMT-73"/>
      <use x="700.195312" xlink:href="#ArialMT-65"/>
     </g>
    </g>
   </g>
  </g>
 </g>
 <defs>
  <clipPath id="p8a625bd800">
   <rect height="217.44" width="334.8" x="54" y="34.56"/>
  </clipPath>
 </defs>
</svg>
