<?xml version="1.0" encoding="utf-8" standalone="no"?>
<!DOCTYPE svg PUBLIC "-//W3C//DTD SVG 1.1//EN"
  "http://www.w3.org/Graphics/SVG/1.1/DTD/svg11.dtd">
<svg height="288pt" version="1.1" viewBox="0 0 432 288" width="432pt" xmlns="http://www.w3.org/2000/svg" xmlns:xlink="http://www.w3.org/1999/xlink">
 <metadata>
  <rdf:RDF xmlns:cc="http://creativecommons.org/ns#" xmlns:dc="http://purl.org/dc/elements/1.1/" xmlns:rdf="http://www.w3.org/1999/02/22-rdf-syntax-ns#">
   <cc:Work>
    <dc:type rdf:resource="http://purl.org/dc/dcmitype/StillImage"/>
    <dc:date>2021-05-22T11:28:59.157943</dc:date>
    <dc:format>image/svg+xml</dc:format>
    <dc:creator>
     <cc:Agent>
      <dc:title>Matplotlib v3.4.1, https://matplotlib.org/</dc:title>
     </cc:Agent>
    </dc:creator>
   </cc:Work>
  </rdf:RDF>
 </metadata>
 <defs>
  <style type="text/css">*{stroke-linecap:butt;stroke-linejoin:round;}</style>
 </defs>
 <g id="figure_1">
  <g id="patch_1">
   <path d="M 0 288 
L 432 288 
L 432 0 
L 0 0 
z
" style="fill:#ffffff;"/>
  </g>
  <g id="axes_1">
   <g id="patch_2">
    <path d="M 54 252 
L 388.8 252 
L 388.8 34.56 
L 54 34.56 
z
" style="fill:#ffffff;"/>
   </g>
   <g id="matplotlib.axis_1">
    <g id="xtick_1">
     <g id="text_1">
      <!-- 5000 -->
      <g style="fill:#262626;" transform="translate(75.875268 269.748312)scale(0.132 -0.132)">
       <defs>
        <path d="M 266 1200 
L 856 1250 
Q 922 819 1161 601 
Q 1400 384 1738 384 
Q 2144 384 2425 690 
Q 2706 997 2706 1503 
Q 2706 1984 2436 2262 
Q 2166 2541 1728 2541 
Q 1456 2541 1237 2417 
Q 1019 2294 894 2097 
L 366 2166 
L 809 4519 
L 3088 4519 
L 3088 3981 
L 1259 3981 
L 1013 2750 
Q 1425 3038 1878 3038 
Q 2478 3038 2890 2622 
Q 3303 2206 3303 1553 
Q 3303 931 2941 478 
Q 2500 -78 1738 -78 
Q 1113 -78 717 272 
Q 322 622 266 1200 
z
" id="ArialMT-35" transform="scale(0.015625)"/>
        <path d="M 266 2259 
Q 266 3072 433 3567 
Q 600 4063 929 4331 
Q 1259 4600 1759 4600 
Q 2128 4600 2406 4451 
Q 2684 4303 2865 4023 
Q 3047 3744 3150 3342 
Q 3253 2941 3253 2259 
Q 3253 1453 3087 958 
Q 2922 463 2592 192 
Q 2263 -78 1759 -78 
Q 1097 -78 719 397 
Q 266 969 266 2259 
z
M 844 2259 
Q 844 1131 1108 757 
Q 1372 384 1759 384 
Q 2147 384 2411 759 
Q 2675 1134 2675 2259 
Q 2675 3391 2411 3762 
Q 2147 4134 1753 4134 
Q 1366 4134 1134 3806 
Q 844 3388 844 2259 
z
" id="ArialMT-30" transform="scale(0.015625)"/>
       </defs>
       <use xlink:href="#ArialMT-35"/>
       <use x="55.615234" xlink:href="#ArialMT-30"/>
       <use x="111.230469" xlink:href="#ArialMT-30"/>
       <use x="166.845703" xlink:href="#ArialMT-30"/>
      </g>
     </g>
    </g>
    <g id="xtick_2">
     <g id="text_2">
      <!-- 10000 -->
      <g style="fill:#262626;" transform="translate(124.788683 269.748312)scale(0.132 -0.132)">
       <defs>
        <path d="M 2384 0 
L 1822 0 
L 1822 3584 
Q 1619 3391 1289 3197 
Q 959 3003 697 2906 
L 697 3450 
Q 1169 3672 1522 3987 
Q 1875 4303 2022 4600 
L 2384 4600 
L 2384 0 
z
" id="ArialMT-31" transform="scale(0.015625)"/>
       </defs>
       <use xlink:href="#ArialMT-31"/>
       <use x="55.615234" xlink:href="#ArialMT-30"/>
       <use x="111.230469" xlink:href="#ArialMT-30"/>
       <use x="166.845703" xlink:href="#ArialMT-30"/>
       <use x="222.460938" xlink:href="#ArialMT-30"/>
      </g>
     </g>
    </g>
    <g id="xtick_3">
     <g id="text_3">
      <!-- 15000 -->
      <g style="fill:#262626;" transform="translate(177.372318 269.748312)scale(0.132 -0.132)">
       <use xlink:href="#ArialMT-31"/>
       <use x="55.615234" xlink:href="#ArialMT-35"/>
       <use x="111.230469" xlink:href="#ArialMT-30"/>
       <use x="166.845703" xlink:href="#ArialMT-30"/>
       <use x="222.460938" xlink:href="#ArialMT-30"/>
      </g>
     </g>
    </g>
    <g id="xtick_4">
     <g id="text_4">
      <!-- 20000 -->
      <g style="fill:#262626;" transform="translate(229.955952 269.748312)scale(0.132 -0.132)">
       <defs>
        <path d="M 3222 541 
L 3222 0 
L 194 0 
Q 188 203 259 391 
Q 375 700 629 1000 
Q 884 1300 1366 1694 
Q 2113 2306 2375 2664 
Q 2638 3022 2638 3341 
Q 2638 3675 2398 3904 
Q 2159 4134 1775 4134 
Q 1369 4134 1125 3890 
Q 881 3647 878 3216 
L 300 3275 
Q 359 3922 746 4261 
Q 1134 4600 1788 4600 
Q 2447 4600 2831 4234 
Q 3216 3869 3216 3328 
Q 3216 3053 3103 2787 
Q 2991 2522 2730 2228 
Q 2469 1934 1863 1422 
Q 1356 997 1212 845 
Q 1069 694 975 541 
L 3222 541 
z
" id="ArialMT-32" transform="scale(0.015625)"/>
       </defs>
       <use xlink:href="#ArialMT-32"/>
       <use x="55.615234" xlink:href="#ArialMT-30"/>
       <use x="111.230469" xlink:href="#ArialMT-30"/>
       <use x="166.845703" xlink:href="#ArialMT-30"/>
       <use x="222.460938" xlink:href="#ArialMT-30"/>
      </g>
     </g>
    </g>
    <g id="xtick_5">
     <g id="text_5">
      <!-- 25000 -->
      <g style="fill:#262626;" transform="translate(282.539586 269.748312)scale(0.132 -0.132)">
       <use xlink:href="#ArialMT-32"/>
       <use x="55.615234" xlink:href="#ArialMT-35"/>
       <use x="111.230469" xlink:href="#ArialMT-30"/>
       <use x="166.845703" xlink:href="#ArialMT-30"/>
       <use x="222.460938" xlink:href="#ArialMT-30"/>
      </g>
     </g>
    </g>
    <g id="xtick_6">
     <g id="text_6">
      <!-- 30000 -->
      <g style="fill:#262626;" transform="translate(335.123221 269.748312)scale(0.132 -0.132)">
       <defs>
        <path d="M 269 1209 
L 831 1284 
Q 928 806 1161 595 
Q 1394 384 1728 384 
Q 2125 384 2398 659 
Q 2672 934 2672 1341 
Q 2672 1728 2419 1979 
Q 2166 2231 1775 2231 
Q 1616 2231 1378 2169 
L 1441 2663 
Q 1497 2656 1531 2656 
Q 1891 2656 2178 2843 
Q 2466 3031 2466 3422 
Q 2466 3731 2256 3934 
Q 2047 4138 1716 4138 
Q 1388 4138 1169 3931 
Q 950 3725 888 3313 
L 325 3413 
Q 428 3978 793 4289 
Q 1159 4600 1703 4600 
Q 2078 4600 2393 4439 
Q 2709 4278 2876 4000 
Q 3044 3722 3044 3409 
Q 3044 3113 2884 2869 
Q 2725 2625 2413 2481 
Q 2819 2388 3044 2092 
Q 3269 1797 3269 1353 
Q 3269 753 2831 336 
Q 2394 -81 1725 -81 
Q 1122 -81 723 278 
Q 325 638 269 1209 
z
" id="ArialMT-33" transform="scale(0.015625)"/>
       </defs>
       <use xlink:href="#ArialMT-33"/>
       <use x="55.615234" xlink:href="#ArialMT-30"/>
       <use x="111.230469" xlink:href="#ArialMT-30"/>
       <use x="166.845703" xlink:href="#ArialMT-30"/>
       <use x="222.460938" xlink:href="#ArialMT-30"/>
      </g>
     </g>
    </g>
    <g id="text_7">
     <!-- dataset size -->
     <g style="fill:#262626;" transform="translate(182.980125 286.679062)scale(0.144 -0.144)">
      <defs>
       <path d="M 2575 0 
L 2575 419 
Q 2259 -75 1647 -75 
Q 1250 -75 917 144 
Q 584 363 401 755 
Q 219 1147 219 1656 
Q 219 2153 384 2558 
Q 550 2963 881 3178 
Q 1213 3394 1622 3394 
Q 1922 3394 2156 3267 
Q 2391 3141 2538 2938 
L 2538 4581 
L 3097 4581 
L 3097 0 
L 2575 0 
z
M 797 1656 
Q 797 1019 1065 703 
Q 1334 388 1700 388 
Q 2069 388 2326 689 
Q 2584 991 2584 1609 
Q 2584 2291 2321 2609 
Q 2059 2928 1675 2928 
Q 1300 2928 1048 2622 
Q 797 2316 797 1656 
z
" id="ArialMT-64" transform="scale(0.015625)"/>
       <path d="M 2588 409 
Q 2275 144 1986 34 
Q 1697 -75 1366 -75 
Q 819 -75 525 192 
Q 231 459 231 875 
Q 231 1119 342 1320 
Q 453 1522 633 1644 
Q 813 1766 1038 1828 
Q 1203 1872 1538 1913 
Q 2219 1994 2541 2106 
Q 2544 2222 2544 2253 
Q 2544 2597 2384 2738 
Q 2169 2928 1744 2928 
Q 1347 2928 1158 2789 
Q 969 2650 878 2297 
L 328 2372 
Q 403 2725 575 2942 
Q 747 3159 1072 3276 
Q 1397 3394 1825 3394 
Q 2250 3394 2515 3294 
Q 2781 3194 2906 3042 
Q 3031 2891 3081 2659 
Q 3109 2516 3109 2141 
L 3109 1391 
Q 3109 606 3145 398 
Q 3181 191 3288 0 
L 2700 0 
Q 2613 175 2588 409 
z
M 2541 1666 
Q 2234 1541 1622 1453 
Q 1275 1403 1131 1340 
Q 988 1278 909 1158 
Q 831 1038 831 891 
Q 831 666 1001 516 
Q 1172 366 1500 366 
Q 1825 366 2078 508 
Q 2331 650 2450 897 
Q 2541 1088 2541 1459 
L 2541 1666 
z
" id="ArialMT-61" transform="scale(0.015625)"/>
       <path d="M 1650 503 
L 1731 6 
Q 1494 -44 1306 -44 
Q 1000 -44 831 53 
Q 663 150 594 308 
Q 525 466 525 972 
L 525 2881 
L 113 2881 
L 113 3319 
L 525 3319 
L 525 4141 
L 1084 4478 
L 1084 3319 
L 1650 3319 
L 1650 2881 
L 1084 2881 
L 1084 941 
Q 1084 700 1114 631 
Q 1144 563 1211 522 
Q 1278 481 1403 481 
Q 1497 481 1650 503 
z
" id="ArialMT-74" transform="scale(0.015625)"/>
       <path d="M 197 991 
L 753 1078 
Q 800 744 1014 566 
Q 1228 388 1613 388 
Q 2000 388 2187 545 
Q 2375 703 2375 916 
Q 2375 1106 2209 1216 
Q 2094 1291 1634 1406 
Q 1016 1563 777 1677 
Q 538 1791 414 1992 
Q 291 2194 291 2438 
Q 291 2659 392 2848 
Q 494 3038 669 3163 
Q 800 3259 1026 3326 
Q 1253 3394 1513 3394 
Q 1903 3394 2198 3281 
Q 2494 3169 2634 2976 
Q 2775 2784 2828 2463 
L 2278 2388 
Q 2241 2644 2061 2787 
Q 1881 2931 1553 2931 
Q 1166 2931 1000 2803 
Q 834 2675 834 2503 
Q 834 2394 903 2306 
Q 972 2216 1119 2156 
Q 1203 2125 1616 2013 
Q 2213 1853 2448 1751 
Q 2684 1650 2818 1456 
Q 2953 1263 2953 975 
Q 2953 694 2789 445 
Q 2625 197 2315 61 
Q 2006 -75 1616 -75 
Q 969 -75 630 194 
Q 291 463 197 991 
z
" id="ArialMT-73" transform="scale(0.015625)"/>
       <path d="M 2694 1069 
L 3275 997 
Q 3138 488 2766 206 
Q 2394 -75 1816 -75 
Q 1088 -75 661 373 
Q 234 822 234 1631 
Q 234 2469 665 2931 
Q 1097 3394 1784 3394 
Q 2450 3394 2872 2941 
Q 3294 2488 3294 1666 
Q 3294 1616 3291 1516 
L 816 1516 
Q 847 969 1125 678 
Q 1403 388 1819 388 
Q 2128 388 2347 550 
Q 2566 713 2694 1069 
z
M 847 1978 
L 2700 1978 
Q 2663 2397 2488 2606 
Q 2219 2931 1791 2931 
Q 1403 2931 1139 2672 
Q 875 2413 847 1978 
z
" id="ArialMT-65" transform="scale(0.015625)"/>
       <path id="ArialMT-20" transform="scale(0.015625)"/>
       <path d="M 425 3934 
L 425 4581 
L 988 4581 
L 988 3934 
L 425 3934 
z
M 425 0 
L 425 3319 
L 988 3319 
L 988 0 
L 425 0 
z
" id="ArialMT-69" transform="scale(0.015625)"/>
       <path d="M 125 0 
L 125 456 
L 2238 2881 
Q 1878 2863 1603 2863 
L 250 2863 
L 250 3319 
L 2963 3319 
L 2963 2947 
L 1166 841 
L 819 456 
Q 1197 484 1528 484 
L 3063 484 
L 3063 0 
L 125 0 
z
" id="ArialMT-7a" transform="scale(0.015625)"/>
      </defs>
      <use xlink:href="#ArialMT-64"/>
      <use x="55.615234" xlink:href="#ArialMT-61"/>
      <use x="111.230469" xlink:href="#ArialMT-74"/>
      <use x="139.013672" xlink:href="#ArialMT-61"/>
      <use x="194.628906" xlink:href="#ArialMT-73"/>
      <use x="244.628906" xlink:href="#ArialMT-65"/>
      <use x="300.244141" xlink:href="#ArialMT-74"/>
      <use x="328.027344" xlink:href="#ArialMT-20"/>
      <use x="355.810547" xlink:href="#ArialMT-73"/>
      <use x="405.810547" xlink:href="#ArialMT-69"/>
      <use x="428.027344" xlink:href="#ArialMT-7a"/>
      <use x="478.027344" xlink:href="#ArialMT-65"/>
     </g>
    </g>
   </g>
   <g id="matplotlib.axis_2">
    <g id="ytick_1">
     <g id="text_8">
      <!-- 30 -->
      <g style="fill:#262626;" transform="translate(31.019125 202.328582)scale(0.132 -0.132)">
       <use xlink:href="#ArialMT-33"/>
       <use x="55.615234" xlink:href="#ArialMT-30"/>
      </g>
     </g>
    </g>
    <g id="ytick_2">
     <g id="text_9">
      <!-- 60 -->
      <g style="fill:#262626;" transform="translate(31.019125 147.98044)scale(0.132 -0.132)">
       <defs>
        <path d="M 3184 3459 
L 2625 3416 
Q 2550 3747 2413 3897 
Q 2184 4138 1850 4138 
Q 1581 4138 1378 3988 
Q 1113 3794 959 3422 
Q 806 3050 800 2363 
Q 1003 2672 1297 2822 
Q 1591 2972 1913 2972 
Q 2475 2972 2870 2558 
Q 3266 2144 3266 1488 
Q 3266 1056 3080 686 
Q 2894 316 2569 119 
Q 2244 -78 1831 -78 
Q 1128 -78 684 439 
Q 241 956 241 2144 
Q 241 3472 731 4075 
Q 1159 4600 1884 4600 
Q 2425 4600 2770 4297 
Q 3116 3994 3184 3459 
z
M 888 1484 
Q 888 1194 1011 928 
Q 1134 663 1356 523 
Q 1578 384 1822 384 
Q 2178 384 2434 671 
Q 2691 959 2691 1453 
Q 2691 1928 2437 2201 
Q 2184 2475 1800 2475 
Q 1419 2475 1153 2201 
Q 888 1928 888 1484 
z
" id="ArialMT-36" transform="scale(0.015625)"/>
       </defs>
       <use xlink:href="#ArialMT-36"/>
       <use x="55.615234" xlink:href="#ArialMT-30"/>
      </g>
     </g>
    </g>
    <g id="ytick_3">
     <g id="text_10">
      <!-- 90 -->
      <g style="fill:#262626;" transform="translate(31.019125 93.632298)scale(0.132 -0.132)">
       <defs>
        <path d="M 350 1059 
L 891 1109 
Q 959 728 1153 556 
Q 1347 384 1650 384 
Q 1909 384 2104 503 
Q 2300 622 2425 820 
Q 2550 1019 2634 1356 
Q 2719 1694 2719 2044 
Q 2719 2081 2716 2156 
Q 2547 1888 2255 1720 
Q 1963 1553 1622 1553 
Q 1053 1553 659 1965 
Q 266 2378 266 3053 
Q 266 3750 677 4175 
Q 1088 4600 1706 4600 
Q 2153 4600 2523 4359 
Q 2894 4119 3086 3673 
Q 3278 3228 3278 2384 
Q 3278 1506 3087 986 
Q 2897 466 2520 194 
Q 2144 -78 1638 -78 
Q 1100 -78 759 220 
Q 419 519 350 1059 
z
M 2653 3081 
Q 2653 3566 2395 3850 
Q 2138 4134 1775 4134 
Q 1400 4134 1122 3828 
Q 844 3522 844 3034 
Q 844 2597 1108 2323 
Q 1372 2050 1759 2050 
Q 2150 2050 2401 2323 
Q 2653 2597 2653 3081 
z
" id="ArialMT-39" transform="scale(0.015625)"/>
       </defs>
       <use xlink:href="#ArialMT-39"/>
       <use x="55.615234" xlink:href="#ArialMT-30"/>
      </g>
     </g>
    </g>
    <g id="ytick_4">
     <g id="text_11">
      <!-- 120 -->
      <g style="fill:#262626;" transform="translate(23.678688 39.284156)scale(0.132 -0.132)">
       <use xlink:href="#ArialMT-31"/>
       <use x="55.615234" xlink:href="#ArialMT-32"/>
       <use x="111.230469" xlink:href="#ArialMT-30"/>
      </g>
     </g>
    </g>
    <g id="text_12">
     <!-- time [min] -->
     <g style="fill:#262626;" transform="translate(16.816688 174.483)rotate(-90)scale(0.144 -0.144)">
      <defs>
       <path d="M 422 0 
L 422 3319 
L 925 3319 
L 925 2853 
Q 1081 3097 1340 3245 
Q 1600 3394 1931 3394 
Q 2300 3394 2536 3241 
Q 2772 3088 2869 2813 
Q 3263 3394 3894 3394 
Q 4388 3394 4653 3120 
Q 4919 2847 4919 2278 
L 4919 0 
L 4359 0 
L 4359 2091 
Q 4359 2428 4304 2576 
Q 4250 2725 4106 2815 
Q 3963 2906 3769 2906 
Q 3419 2906 3187 2673 
Q 2956 2441 2956 1928 
L 2956 0 
L 2394 0 
L 2394 2156 
Q 2394 2531 2256 2718 
Q 2119 2906 1806 2906 
Q 1569 2906 1367 2781 
Q 1166 2656 1075 2415 
Q 984 2175 984 1722 
L 984 0 
L 422 0 
z
" id="ArialMT-6d" transform="scale(0.015625)"/>
       <path d="M 434 -1272 
L 434 4581 
L 1675 4581 
L 1675 4116 
L 997 4116 
L 997 -806 
L 1675 -806 
L 1675 -1272 
L 434 -1272 
z
" id="ArialMT-5b" transform="scale(0.015625)"/>
       <path d="M 422 0 
L 422 3319 
L 928 3319 
L 928 2847 
Q 1294 3394 1984 3394 
Q 2284 3394 2536 3286 
Q 2788 3178 2913 3003 
Q 3038 2828 3088 2588 
Q 3119 2431 3119 2041 
L 3119 0 
L 2556 0 
L 2556 2019 
Q 2556 2363 2490 2533 
Q 2425 2703 2258 2804 
Q 2091 2906 1866 2906 
Q 1506 2906 1245 2678 
Q 984 2450 984 1813 
L 984 0 
L 422 0 
z
" id="ArialMT-6e" transform="scale(0.015625)"/>
       <path d="M 1363 -1272 
L 122 -1272 
L 122 -806 
L 800 -806 
L 800 4116 
L 122 4116 
L 122 4581 
L 1363 4581 
L 1363 -1272 
z
" id="ArialMT-5d" transform="scale(0.015625)"/>
      </defs>
      <use xlink:href="#ArialMT-74"/>
      <use x="27.783203" xlink:href="#ArialMT-69"/>
      <use x="50" xlink:href="#ArialMT-6d"/>
      <use x="133.300781" xlink:href="#ArialMT-65"/>
      <use x="188.916016" xlink:href="#ArialMT-20"/>
      <use x="216.699219" xlink:href="#ArialMT-5b"/>
      <use x="244.482422" xlink:href="#ArialMT-6d"/>
      <use x="327.783203" xlink:href="#ArialMT-69"/>
      <use x="350" xlink:href="#ArialMT-6e"/>
      <use x="405.615234" xlink:href="#ArialMT-5d"/>
     </g>
    </g>
   </g>
   <g id="PathCollection_1">
    <defs>
     <path d="M 0 3.535534 
C 0.937635 3.535534 1.836992 3.163008 2.5 2.5 
C 3.163008 1.836992 3.535534 0.937635 3.535534 0 
C 3.535534 -0.937635 3.163008 -1.836992 2.5 -2.5 
C 1.836992 -3.163008 0.937635 -3.535534 0 -3.535534 
C -0.937635 -3.535534 -1.836992 -3.163008 -2.5 -2.5 
C -3.163008 -1.836992 -3.535534 -0.937635 -3.535534 0 
C -3.535534 0.937635 -3.163008 1.836992 -2.5 2.5 
C -1.836992 3.163008 -0.937635 3.535534 0 3.535534 
z
" id="m0494405a4d" style="stroke:#1f77b4;stroke-width:0.8;"/>
    </defs>
    <g clip-path="url(#p81c7d6b126)">
     <use style="fill:#1f77b4;stroke:#1f77b4;stroke-width:0.8;" x="54" xlink:href="#m0494405a4d" y="238.607079"/>
     <use style="fill:#1f77b4;stroke:#1f77b4;stroke-width:0.8;" x="57.807055" xlink:href="#m0494405a4d" y="226.554876"/>
     <use style="fill:#1f77b4;stroke:#1f77b4;stroke-width:0.8;" x="59.132163" xlink:href="#m0494405a4d" y="236.664637"/>
     <use style="fill:#1f77b4;stroke:#1f77b4;stroke-width:0.8;" x="59.668516" xlink:href="#m0494405a4d" y="236.418057"/>
     <use style="fill:#1f77b4;stroke:#1f77b4;stroke-width:0.8;" x="61.687727" xlink:href="#m0494405a4d" y="230.651115"/>
     <use style="fill:#1f77b4;stroke:#1f77b4;stroke-width:0.8;" x="67.776912" xlink:href="#m0494405a4d" y="230.057312"/>
     <use style="fill:#1f77b4;stroke:#1f77b4;stroke-width:0.8;" x="75.159654" xlink:href="#m0494405a4d" y="231.340532"/>
     <use style="fill:#1f77b4;stroke:#1f77b4;stroke-width:0.8;" x="86.054984" xlink:href="#m0494405a4d" y="228.618092"/>
     <use style="fill:#1f77b4;stroke:#1f77b4;stroke-width:0.8;" x="93.237908" xlink:href="#m0494405a4d" y="208.056379"/>
     <use style="fill:#1f77b4;stroke:#1f77b4;stroke-width:0.8;" x="99.022108" xlink:href="#m0494405a4d" y="222.695151"/>
     <use style="fill:#1f77b4;stroke:#1f77b4;stroke-width:0.8;" x="101.451472" xlink:href="#m0494405a4d" y="222.433475"/>
     <use style="fill:#1f77b4;stroke:#1f77b4;stroke-width:0.8;" x="105.416278" xlink:href="#m0494405a4d" y="208.453925"/>
     <use style="fill:#1f77b4;stroke:#1f77b4;stroke-width:0.8;" x="123.094896" xlink:href="#m0494405a4d" y="203.165046"/>
     <use style="fill:#1f77b4;stroke:#1f77b4;stroke-width:0.8;" x="149.533947" xlink:href="#m0494405a4d" y="202.722209"/>
     <use style="fill:#1f77b4;stroke:#1f77b4;stroke-width:0.8;" x="150.164951" xlink:href="#m0494405a4d" y="208.740763"/>
     <use style="fill:#1f77b4;stroke:#1f77b4;stroke-width:0.8;" x="186.09009" xlink:href="#m0494405a4d" y="198.520293"/>
     <use style="fill:#1f77b4;stroke:#1f77b4;stroke-width:0.8;" x="248.685648" xlink:href="#m0494405a4d" y="72.045121"/>
     <use style="fill:#1f77b4;stroke:#1f77b4;stroke-width:0.8;" x="279.741542" xlink:href="#m0494405a4d" y="140.669715"/>
     <use style="fill:#1f77b4;stroke:#1f77b4;stroke-width:0.8;" x="298.282532" xlink:href="#m0494405a4d" y="158.951826"/>
     <use style="fill:#1f77b4;stroke:#1f77b4;stroke-width:0.8;" x="322.208085" xlink:href="#m0494405a4d" y="87.348149"/>
     <use style="fill:#1f77b4;stroke:#1f77b4;stroke-width:0.8;" x="388.8" xlink:href="#m0494405a4d" y="52.394242"/>
    </g>
   </g>
   <g id="PolyCollection_1">
    <defs>
     <path d="M 54 -51.134892 
L 54 -45.57357 
L 57.381818 -47.343041 
L 60.763636 -49.134605 
L 64.145455 -50.916035 
L 67.527273 -52.700088 
L 70.909091 -54.470991 
L 74.290909 -56.258611 
L 77.672727 -57.965596 
L 81.054545 -59.683579 
L 84.436364 -61.402673 
L 87.818182 -63.095356 
L 91.2 -64.751338 
L 94.581818 -66.378942 
L 97.963636 -67.895009 
L 101.345455 -69.388356 
L 104.727273 -70.897909 
L 108.109091 -72.30836 
L 111.490909 -73.752408 
L 114.872727 -75.216767 
L 118.254545 -76.607672 
L 121.636364 -77.978646 
L 125.018182 -79.321777 
L 128.4 -80.759016 
L 131.781818 -82.133999 
L 135.163636 -83.480037 
L 138.545455 -84.816955 
L 141.927273 -86.121076 
L 145.309091 -87.523022 
L 148.690909 -88.868799 
L 152.072727 -90.215706 
L 155.454545 -91.563968 
L 158.836364 -92.912229 
L 162.218182 -94.265298 
L 165.6 -95.655341 
L 168.981818 -96.984385 
L 172.363636 -98.313429 
L 175.745455 -99.648014 
L 179.127273 -101.030194 
L 182.509091 -102.420608 
L 185.890909 -103.811023 
L 189.272727 -105.201437 
L 192.654545 -106.591852 
L 196.036364 -107.945519 
L 199.418182 -109.29252 
L 202.8 -110.639521 
L 206.181818 -111.986521 
L 209.563636 -113.333522 
L 212.945455 -114.698782 
L 216.327273 -116.085295 
L 219.709091 -117.471808 
L 223.090909 -118.858321 
L 226.472727 -120.244834 
L 229.854545 -121.631347 
L 233.236364 -123.009477 
L 236.618182 -124.343434 
L 240 -125.677391 
L 243.381818 -127.011348 
L 246.763636 -128.345305 
L 250.145455 -129.679262 
L 253.527273 -131.013219 
L 256.909091 -132.347176 
L 260.290909 -133.681133 
L 263.672727 -135.01509 
L 267.054545 -136.349047 
L 270.436364 -137.683004 
L 273.818182 -139.016961 
L 277.2 -140.350918 
L 280.581818 -141.684875 
L 283.963636 -143.018832 
L 287.345455 -144.352789 
L 290.727273 -145.686746 
L 294.109091 -147.020703 
L 297.490909 -148.35466 
L 300.872727 -149.688617 
L 304.254545 -151.022574 
L 307.636364 -152.366679 
L 311.018182 -153.712333 
L 314.4 -155.057986 
L 317.781818 -156.403977 
L 321.163636 -157.750148 
L 324.545455 -159.09632 
L 327.927273 -160.442492 
L 331.309091 -161.788664 
L 334.690909 -163.142514 
L 338.072727 -164.496699 
L 341.454545 -165.850885 
L 344.836364 -167.205071 
L 348.218182 -168.559257 
L 351.6 -169.913443 
L 354.981818 -171.267629 
L 358.363636 -172.621815 
L 361.745455 -173.976001 
L 365.127273 -175.330187 
L 368.509091 -176.684372 
L 371.890909 -178.038558 
L 375.272727 -179.392744 
L 378.654545 -180.74693 
L 382.036364 -182.101116 
L 385.418182 -183.455302 
L 388.8 -184.809488 
L 388.8 -229.538179 
L 388.8 -229.538179 
L 385.418182 -227.689664 
L 382.036364 -225.841149 
L 378.654545 -223.992633 
L 375.272727 -222.144118 
L 371.890909 -220.298601 
L 368.509091 -218.459027 
L 365.127273 -216.609898 
L 361.745455 -214.77312 
L 358.363636 -212.941118 
L 354.981818 -211.102818 
L 351.6 -209.270612 
L 348.218182 -207.425073 
L 344.836364 -205.585965 
L 341.454545 -203.746858 
L 338.072727 -201.90775 
L 334.690909 -200.068643 
L 331.309091 -198.229535 
L 327.927273 -196.387231 
L 324.545455 -194.5447 
L 321.163636 -192.702169 
L 317.781818 -190.859639 
L 314.4 -189.017108 
L 311.018182 -187.174577 
L 307.636364 -185.332047 
L 304.254545 -183.4913 
L 300.872727 -181.667751 
L 297.490909 -179.839478 
L 294.109091 -178.000857 
L 290.727273 -176.162236 
L 287.345455 -174.323615 
L 283.963636 -172.484994 
L 280.581818 -170.646373 
L 277.2 -168.80772 
L 273.818182 -166.973364 
L 270.436364 -165.152522 
L 267.054545 -163.33168 
L 263.672727 -161.510787 
L 260.290909 -159.676861 
L 256.909091 -157.824886 
L 253.527273 -155.97291 
L 250.145455 -154.120934 
L 246.763636 -152.268958 
L 243.381818 -150.416394 
L 240 -148.565339 
L 236.618182 -146.713729 
L 233.236364 -144.862119 
L 229.854545 -143.028528 
L 226.472727 -141.218321 
L 223.090909 -139.381327 
L 219.709091 -137.52961 
L 216.327273 -135.66404 
L 212.945455 -133.797829 
L 209.563636 -131.931617 
L 206.181818 -130.085486 
L 202.8 -128.224102 
L 199.418182 -126.405308 
L 196.036364 -124.585563 
L 192.654545 -122.765818 
L 189.272727 -120.946074 
L 185.890909 -119.126329 
L 182.509091 -117.290086 
L 179.127273 -115.446963 
L 175.745455 -113.603697 
L 172.363636 -111.780334 
L 168.981818 -109.95759 
L 165.6 -108.119275 
L 162.218182 -106.280024 
L 158.836364 -104.451495 
L 155.454545 -102.637755 
L 152.072727 -100.791136 
L 148.690909 -98.963189 
L 145.309091 -97.159277 
L 141.927273 -95.356568 
L 138.545455 -93.55513 
L 135.163636 -91.762319 
L 131.781818 -89.950067 
L 128.4 -88.147249 
L 125.018182 -86.330967 
L 121.636364 -84.542123 
L 118.254545 -82.739406 
L 114.872727 -80.897144 
L 111.490909 -79.05624 
L 108.109091 -77.249718 
L 104.727273 -75.442989 
L 101.345455 -73.669118 
L 97.963636 -71.845795 
L 94.581818 -70.062406 
L 91.2 -68.282641 
L 87.818182 -66.518776 
L 84.436364 -64.725606 
L 81.054545 -63.057089 
L 77.672727 -61.412353 
L 74.290909 -59.784977 
L 70.909091 -58.180163 
L 67.527273 -56.756261 
L 64.145455 -55.3091 
L 60.763636 -53.880758 
L 57.381818 -52.505668 
L 54 -51.134892 
z
" id="m572a4e681f" style="stroke:#ffffff;stroke-opacity:0.15;stroke-width:0.8;"/>
    </defs>
    <g clip-path="url(#p81c7d6b126)">
     <use style="fill:#1f77b4;fill-opacity:0.15;stroke:#ffffff;stroke-opacity:0.15;stroke-width:0.8;" x="0" xlink:href="#m572a4e681f" y="288"/>
    </g>
   </g>
   <g id="line2d_1">
    <path clip-path="url(#p81c7d6b126)" d="M 54 239.905522 
L 54 237.313292 
" style="fill:none;stroke:#1f77b4;stroke-linecap:round;stroke-width:2.1;"/>
   </g>
   <g id="line2d_2">
    <path clip-path="url(#p81c7d6b126)" d="M 57.807055 229.639636 
L 57.807055 224.274896 
" style="fill:none;stroke:#1f77b4;stroke-linecap:round;stroke-width:2.1;"/>
   </g>
   <g id="line2d_3">
    <path clip-path="url(#p81c7d6b126)" d="M 59.132163 238.194436 
L 59.132163 235.195224 
" style="fill:none;stroke:#1f77b4;stroke-linecap:round;stroke-width:2.1;"/>
   </g>
   <g id="line2d_4">
    <path clip-path="url(#p81c7d6b126)" d="M 59.668516 238.239726 
L 59.668516 234.692 
" style="fill:none;stroke:#1f77b4;stroke-linecap:round;stroke-width:2.1;"/>
   </g>
   <g id="line2d_5">
    <path clip-path="url(#p81c7d6b126)" d="M 61.687727 233.061682 
L 61.687727 228.301061 
" style="fill:none;stroke:#1f77b4;stroke-linecap:round;stroke-width:2.1;"/>
   </g>
   <g id="line2d_6">
    <path clip-path="url(#p81c7d6b126)" d="M 67.776912 232.377172 
L 67.776912 227.722229 
" style="fill:none;stroke:#1f77b4;stroke-linecap:round;stroke-width:2.1;"/>
   </g>
   <g id="line2d_7">
    <path clip-path="url(#p81c7d6b126)" d="M 75.159654 232.135625 
L 75.159654 230.510213 
" style="fill:none;stroke:#1f77b4;stroke-linecap:round;stroke-width:2.1;"/>
   </g>
   <g id="line2d_8">
    <path clip-path="url(#p81c7d6b126)" d="M 86.054984 229.171638 
L 86.054984 227.933708 
" style="fill:none;stroke:#1f77b4;stroke-linecap:round;stroke-width:2.1;"/>
   </g>
   <g id="line2d_9">
    <path clip-path="url(#p81c7d6b126)" d="M 93.237908 209.164351 
L 93.237908 206.954319 
" style="fill:none;stroke:#1f77b4;stroke-linecap:round;stroke-width:2.1;"/>
   </g>
   <g id="line2d_10">
    <path clip-path="url(#p81c7d6b126)" d="M 99.022108 224.778497 
L 99.022108 220.47971 
" style="fill:none;stroke:#1f77b4;stroke-linecap:round;stroke-width:2.1;"/>
   </g>
   <g id="line2d_11">
    <path clip-path="url(#p81c7d6b126)" d="M 101.451472 223.128049 
L 101.451472 221.598124 
" style="fill:none;stroke:#1f77b4;stroke-linecap:round;stroke-width:2.1;"/>
   </g>
   <g id="line2d_12">
    <path clip-path="url(#p81c7d6b126)" d="M 105.416278 211.115978 
L 105.416278 205.716389 
" style="fill:none;stroke:#1f77b4;stroke-linecap:round;stroke-width:2.1;"/>
   </g>
   <g id="line2d_13">
    <path clip-path="url(#p81c7d6b126)" d="M 123.094896 204.65962 
L 123.094896 201.55473 
" style="fill:none;stroke:#1f77b4;stroke-linecap:round;stroke-width:2.1;"/>
   </g>
   <g id="line2d_14">
    <path clip-path="url(#p81c7d6b126)" d="M 149.533947 203.909817 
L 149.533947 201.635246 
" style="fill:none;stroke:#1f77b4;stroke-linecap:round;stroke-width:2.1;"/>
   </g>
   <g id="line2d_15">
    <path clip-path="url(#p81c7d6b126)" d="M 150.164951 212.207973 
L 150.164951 205.576996 
" style="fill:none;stroke:#1f77b4;stroke-linecap:round;stroke-width:2.1;"/>
   </g>
   <g id="line2d_16">
    <path clip-path="url(#p81c7d6b126)" d="M 186.09009 202.671887 
L 186.09009 194.454246 
" style="fill:none;stroke:#1f77b4;stroke-linecap:round;stroke-width:2.1;"/>
   </g>
   <g id="line2d_17">
    <path clip-path="url(#p81c7d6b126)" d="M 248.685648 91.831871 
L 248.685648 54.42022 
" style="fill:none;stroke:#1f77b4;stroke-linecap:round;stroke-width:2.1;"/>
   </g>
   <g id="line2d_18">
    <path clip-path="url(#p81c7d6b126)" d="M 279.741542 148.499873 
L 279.741542 132.738912 
" style="fill:none;stroke:#1f77b4;stroke-linecap:round;stroke-width:2.1;"/>
   </g>
   <g id="line2d_19">
    <path clip-path="url(#p81c7d6b126)" d="M 298.282532 164.326253 
L 298.282532 153.250303 
" style="fill:none;stroke:#1f77b4;stroke-linecap:round;stroke-width:2.1;"/>
   </g>
   <g id="line2d_20">
    <path clip-path="url(#p81c7d6b126)" d="M 322.208085 100.376732 
L 322.208085 74.198918 
" style="fill:none;stroke:#1f77b4;stroke-linecap:round;stroke-width:2.1;"/>
   </g>
   <g id="line2d_21">
    <path clip-path="url(#p81c7d6b126)" d="M 388.8 53.757978 
L 388.8 50.955023 
" style="fill:none;stroke:#1f77b4;stroke-linecap:round;stroke-width:2.1;"/>
   </g>
   <g id="line2d_22">
    <path clip-path="url(#p81c7d6b126)" d="M 54 240.200603 
L 57.381818 238.494826 
L 60.763636 236.789048 
L 64.145455 235.083271 
L 67.527273 233.377494 
L 70.909091 231.671717 
L 74.290909 229.965939 
L 77.672727 228.260162 
L 81.054545 226.554385 
L 84.436364 224.848608 
L 87.818182 223.14283 
L 91.2 221.437053 
L 94.581818 219.731276 
L 97.963636 218.025498 
L 101.345455 216.319721 
L 104.727273 214.613944 
L 108.109091 212.908167 
L 111.490909 211.202389 
L 114.872727 209.496612 
L 118.254545 207.790835 
L 121.636364 206.085058 
L 125.018182 204.37928 
L 128.4 202.673503 
L 131.781818 200.967726 
L 135.163636 199.261949 
L 138.545455 197.556171 
L 141.927273 195.850394 
L 145.309091 194.144617 
L 148.690909 192.438839 
L 152.072727 190.733062 
L 155.454545 189.027285 
L 158.836364 187.321508 
L 162.218182 185.61573 
L 165.6 183.909953 
L 168.981818 182.204176 
L 172.363636 180.498399 
L 175.745455 178.792621 
L 179.127273 177.086844 
L 182.509091 175.381067 
L 185.890909 173.67529 
L 189.272727 171.969512 
L 192.654545 170.263735 
L 196.036364 168.557958 
L 199.418182 166.85218 
L 202.8 165.146403 
L 206.181818 163.440626 
L 209.563636 161.734849 
L 212.945455 160.029071 
L 216.327273 158.323294 
L 219.709091 156.617517 
L 223.090909 154.91174 
L 226.472727 153.205962 
L 229.854545 151.500185 
L 233.236364 149.794408 
L 236.618182 148.08863 
L 240 146.382853 
L 243.381818 144.677076 
L 246.763636 142.971299 
L 250.145455 141.265521 
L 253.527273 139.559744 
L 256.909091 137.853967 
L 260.290909 136.14819 
L 263.672727 134.442412 
L 267.054545 132.736635 
L 270.436364 131.030858 
L 273.818182 129.325081 
L 277.2 127.619303 
L 280.581818 125.913526 
L 283.963636 124.207749 
L 287.345455 122.501971 
L 290.727273 120.796194 
L 294.109091 119.090417 
L 297.490909 117.38464 
L 300.872727 115.678862 
L 304.254545 113.973085 
L 307.636364 112.267308 
L 311.018182 110.561531 
L 314.4 108.855753 
L 317.781818 107.149976 
L 321.163636 105.444199 
L 324.545455 103.738422 
L 327.927273 102.032644 
L 331.309091 100.326867 
L 334.690909 98.62109 
L 338.072727 96.915312 
L 341.454545 95.209535 
L 344.836364 93.503758 
L 348.218182 91.797981 
L 351.6 90.092203 
L 354.981818 88.386426 
L 358.363636 86.680649 
L 361.745455 84.974872 
L 365.127273 83.269094 
L 368.509091 81.563317 
L 371.890909 79.85754 
L 375.272727 78.151763 
L 378.654545 76.445985 
L 382.036364 74.740208 
L 385.418182 73.034431 
L 388.8 71.328653 
" style="fill:none;stroke:#1f77b4;stroke-linecap:round;stroke-width:1.8;"/>
   </g>
   <g id="patch_3">
    <path d="M 54 252 
L 54 34.56 
" style="fill:none;stroke:#262626;stroke-linecap:square;stroke-linejoin:miter;"/>
   </g>
   <g id="patch_4">
    <path d="M 388.8 252 
L 388.8 34.56 
" style="fill:none;stroke:#262626;stroke-linecap:square;stroke-linejoin:miter;"/>
   </g>
   <g id="patch_5">
    <path d="M 54 252 
L 388.8 252 
" style="fill:none;stroke:#262626;stroke-linecap:square;stroke-linejoin:miter;"/>
   </g>
   <g id="patch_6">
    <path d="M 54 34.56 
L 388.8 34.56 
" style="fill:none;stroke:#262626;stroke-linecap:square;stroke-linejoin:miter;"/>
   </g>
  </g>
 </g>
 <defs>
  <clipPath id="p81c7d6b126">
   <rect height="217.44" width="334.8" x="54" y="34.56"/>
  </clipPath>
 </defs>
</svg>
